<svg xmlns="http://www.w3.org/2000/svg" viewBox="0 0 32 32" fill="none">
  <rect width="32" height="32" rx="8" fill="#050510"/>
  <!-- Outer shield -->
  <path d="M16 4L6 8.5V16c0 5.25 4.25 10.15 10 11.5C21.75 26.15 26 21.25 26 16V8.5L16 4Z" fill="url(#shield_grad)" opacity="0.15"/>
  <!-- Shield outline -->
  <path d="M16 4L6 8.5V16c0 5.25 4.25 10.15 10 11.5C21.75 26.15 26 21.25 26 16V8.5L16 4Z" stroke="url(#outline_grad)" stroke-width="1.5" fill="none"/>
  <!-- Inner A -->
  <path d="M16 10L11 22h2.4l1-2.8h3.2l1 2.8H21L16 10Zm0 3.6l1.1 3.1h-2.2L16 13.6Z" fill="url(#letter_grad)"/>
  <defs>
    <linearGradient id="shield_grad" x1="6" y1="4" x2="26" y2="27.5" gradientUnits="userSpaceOnUse">
      <stop offset="0%" stop-color="#7c3aed"/>
      <stop offset="100%" stop-color="#06b6d4"/>
    </linearGradient>
    <linearGradient id="outline_grad" x1="6" y1="4" x2="26" y2="27.5" gradientUnits="userSpaceOnUse">
      <stop offset="0%" stop-color="#a78bfa"/>
      <stop offset="100%" stop-color="#22d3ee"/>
    </linearGradient>
    <linearGradient id="letter_grad" x1="11" y1="10" x2="21" y2="22" gradientUnits="userSpaceOnUse">
      <stop offset="0%" stop-color="#c4b5fd"/>
      <stop offset="100%" stop-color="#67e8f9"/>
    </linearGradient>
  </defs>
</svg>
